<svg xmlns="http://www.w3.org/2000/svg" xmlns:xlink="http://www.w3.org/1999/xlink" enable-background="new 0 0 3000 3000" viewBox="0 0 3000 3000" id="house-cleaner-cleaning-windows-of-house">
  <switch>
    <g>
      <g>
        <g>
          <g>
            <g opacity=".1">
              <g>
                <polygon points="552.741 1831.328 2304.229 2850 2447.259 2746.235 695.771 1727.564"></polygon>
              </g>
            </g>
            <g>
              <g>
                <g>
                  <polygon fill="#ded090" points="767.388 150 771.057 1888.427 2306.685 2780.837 2303.016 1042.41"></polygon>
                </g>
              </g>
              <path fill="#f2f2f2" d="M2304.335,1507.518l-0.025-8.768L768.687,608.433l0.025,8.768L2304.335,1507.518z
							 M768.464,529.671l-0.025-8.768l1535.622,890.35l0.025,8.769L768.464,529.671z M768.96,704.695l-0.025-8.769l1535.622,890.317
							l0.025,8.77L768.96,704.695z M767.72,267.148l-0.025-8.769l1535.623,890.317l0.025,8.769L767.72,267.148z M769.208,792.189
							l-0.025-8.769l1535.623,890.317l0.025,8.77L769.208,792.189z M768.216,442.137l-0.025-8.769l1535.623,890.318l0.025,8.768
							L768.216,442.137z M767.968,354.643l-0.025-8.769l1535.622,890.317l0.025,8.769L767.968,354.643z M767.472,179.655
							l-0.025-8.768l1535.622,890.317l0.025,8.768L767.472,179.655z M770.707,1320.926l-0.024-8.768l1535.622,890.316l0.025,8.768
							L770.707,1320.926z M769.457,879.683l-0.025-8.769l1535.622,890.317l0.025,8.769L769.457,879.683z M770.955,1408.42
							l-0.025-8.768l1535.623,890.317l0.024,8.769L770.955,1408.42z M770.459,1233.432l-0.025-8.769l1535.623,890.318l0.025,8.768
							L770.459,1233.432z M769.704,967.177l-0.025-8.769l1535.623,890.318l0.025,8.769L769.704,967.177z M770.2,1142.164
							l-0.025-8.768l1535.623,890.318l0.025,8.768L770.2,1142.164z M769.953,1054.67l-0.025-8.768L2305.55,1936.22l0.025,8.768
							L769.953,1054.67z"></path>
              <g>
                <g>
                  <polygon fill="#f5ecd0" points="2187.102 2455.401 2306.685 2524.895 2303.016 1042.476 2187.102 975.113"></polygon>
                </g>
                <g>
                  <polygon fill="#fff6da" points="869.995 209.695 767.388 150.066 771.057 1632.486 869.995 1689.981"></polygon>
                </g>
              </g>
              <polygon fill="#d6d6d6" points="1836.358 1225.724 1267.829 897.476 1265.8 1613.511 1834.328 1941.759"></polygon>
              <g>
                <defs>
                  <polygon id="a" points="1818.33 1228.082 1277.366 915.757 1275.426 1599.962 1816.39 1912.288"></polygon>
                </defs>
                <use xlink:href="#a" fill="#4cabe6" overflow="visible"></use>
                <clipPath id="b">
                  <use xlink:href="#a" overflow="visible"></use>
                </clipPath>
                <g clip-path="url(#b)">
                  <rect width="112.308" height="892.842" x="1559.085" y="1069.418" fill="#3d3d3d" transform="rotate(41.884 1615.31 1515.881)"></rect>
                  <rect width="36.5" height="892.842" x="1694.62" y="1164.512" fill="#3d3d3d" transform="rotate(41.884 1712.945 1610.975)"></rect>
                  <rect width="20.205" height="892.842" x="1490.475" y="962.825" fill="#3d3d3d" transform="rotate(41.884 1500.64 1409.277)"></rect>
                </g>
              </g>
              <g>
                <g>
                  <g>
                    <polygon fill="#ebebeb" points="1524.544 1677.135 1544.005 1665.825 1342.411 1549.434 1322.95 1560.744"></polygon>
                  </g>
                  <g>
                    <polygon fill="#7d7d7d" points="1322.95 1560.744 1342.411 1549.434 1343.117 1300.467 1323.656 1311.777"></polygon>
                  </g>
                  <g>
                    <polygon fill="#ebebeb" points="1769.243 1818.412 1788.704 1807.102 1587.11 1690.711 1567.649 1702.021"></polygon>
                  </g>
                  <g>
                    <polygon fill="#7d7d7d" points="1567.649 1702.021 1587.11 1690.711 1587.816 1441.744 1568.355 1453.054"></polygon>
                  </g>
                  <g>
                    <polygon fill="#ebebeb" points="1525.401 1374.99 1544.862 1363.681 1343.268 1247.29 1323.807 1258.6"></polygon>
                  </g>
                  <g>
                    <polygon fill="#7d7d7d" points="1323.807 1258.6 1343.268 1247.29 1343.974 998.323 1324.512 1009.632"></polygon>
                  </g>
                  <g>
                    <polygon fill="#ebebeb" points="1770.1 1516.267 1789.561 1504.958 1587.967 1388.567 1568.506 1399.877"></polygon>
                  </g>
                  <g>
                    <polygon fill="#7d7d7d" points="1568.506 1399.877 1587.967 1388.567 1588.672 1139.599 1569.211 1150.909"></polygon>
                  </g>
                  <g>
                    <path fill="#d1d1d1" d="M1818.33,1228.082l-540.964-312.326l-1.94,684.205l540.964,312.326L1818.33,1228.082z
										 M1568.506,1399.877l0.706-248.968l201.594,116.391l-0.706,248.968L1568.506,1399.877L1568.506,1399.877z M1323.807,1258.6
										l0.706-248.968l201.594,116.391l-0.706,248.968L1323.807,1258.6L1323.807,1258.6z M1322.95,1560.744l0.706-248.967
										l201.594,116.391l-0.706,248.967L1322.95,1560.744L1322.95,1560.744z M1567.649,1702.021l0.706-248.967l201.594,116.391
										l-0.706,248.967L1567.649,1702.021L1567.649,1702.021z"></path>
                  </g>
                </g>
              </g>
            </g>
          </g>
          <g>
            <g>
              <path fill="#ff4545" d="M1506.303,1401.282c-17.514,14.856-35.189-5.457-45.604-11.583
							c-6.159-21.441-30.003-22.618-48.16-7.982c-8.226,6.631-15.538-6.62-21.294-10.733c-12.216-46.28,8.121-95.171,23.763-133.155
							c11.303-2.925,13.654-20.764,31.695-11.073C1468.963,1238.714,1513.503,1347.679,1506.303,1401.282z"></path>
              <g>
                <path fill="#f04040" d="M1405.277,1371.38c-15.819-40.938-4.63-86.988,6.118-124.741
								c-14.919,36.567-31.443,81.562-20.15,124.346c5.756,4.112,13.069,17.364,21.294,10.733c1.019-0.821,2.06-1.575,3.11-2.295
								C1411.882,1376.832,1408.277,1373.061,1405.277,1371.38z"></path>
              </g>
              <g>
                <path fill="#e63e3e" d="M1446.702,1226.756c-2.345-1.26-4.416-2.036-6.284-2.459c0.858,0.506,1.893,0.902,2.669,1.754
								c32.267,35.394,11.177,147.876,35.338,175.992c8.512,4.922,18.218,7.432,27.878-0.762
								C1513.503,1347.679,1468.962,1238.714,1446.702,1226.756z"></path>
              </g>
            </g>
            <g>
              <g>
                <g>
                  <path fill="#f0c7ad" d="M1232.059,1326.613c0,0-206.989-17.324-230.097,3.723c-7.695,7.009,14.933,38,23.202,44.425
									c11.585,9.001,206.651-9.21,206.651-9.21L1232.059,1326.613z"></path>
                  <path fill="#6694e9" d="M1143.32,1375.618c-57.786,4.09-120.476,7.186-127.182,1.976
									c-9.078-7.054-33.922-41.079-25.473-48.774c13.976-12.73,89.267-13.32,154.095-11.288
									C1156.412,1333.818,1154.893,1361.846,1143.32,1375.618z"></path>
                </g>
                <g>
                  <path fill="#f0c7ad" d="M1319.99,1303.453c-5.094-9.204-33.616-9.565-36.973-2.311
									c-7.118,15.381-23.689,14.086-31.811,22.517c-3.812,3.958-23.447,2.734-23.447,2.734l2.379,39.266
									c0,0,19.177-0.853,36.585,3.585c13.448,3.428,41.687-2.902,46.548-9.457
									C1322.238,1347.694,1331.26,1323.814,1319.99,1303.453z"></path>
                </g>
                <g>
                  <g>
                    <g>
                      <path fill="#74a3f2" d="M1283.287,1308.323l2.034,1.182l0.241,84.896c0.013,4.557,1.622,7.764,4.217,9.272
											l-2.034-1.182c-0.243-0.141-0.478-0.298-0.703-0.469c-0.526-0.399-1.002-0.878-1.422-1.432
											c0.42,0.555,0.896,1.033,1.422,1.432c0.225,0.171,0.46,0.327,0.703,0.469c-0.295-0.172-0.684-0.41-0.972-0.596
											c-0.285-0.184-0.663-0.434-0.935-0.637c-0.475-0.354-1.097-0.841-1.553-1.218c-0.259-0.214-0.583-0.523-0.829-0.75
											c-0.15-0.138-0.834-0.802-1.441-1.527c-0.237-0.283-0.541-0.67-0.761-0.966c-0.171-0.23-0.389-0.545-0.543-0.786
											c-0.479-0.75-1.266-2.041-1.829-3.973c-0.183-0.628-0.36-1.485-0.449-2.132c-0.092-0.668-0.13-1.57-0.154-2.244
											c0,0,0,0,0,0l0,0v0c0-1.273-0.009-2.971-0.012-4.244c-0.004-1.273-0.008-2.97-0.012-4.243l-0.024-8.472
											c-0.062-21.818-0.124-43.633-0.186-65.451C1278.044,1305.266,1279.991,1306.408,1283.287,1308.323z M1284.808,1399.286
											c-0.144-0.283-0.277-0.581-0.398-0.891C1284.531,1398.706,1284.664,1399.003,1284.808,1399.286z"></path>
                      <path fill="#7aacff" d="M1309.848,1309.016c0.277,0.754,1.419,3.866,2.562,6.978
											c3.234,8.808,8.984,14.931,16.605,17.678l4.801,1.731c10.609,3.824,16.788,15.15,16.833,30.849
											c0.022,6.829-4.79,15.164-10.735,18.594c-10.574,6.105-21.148,12.21-31.722,18.315
											c-5.944,3.434-10.788,0.674-10.805-6.158c-0.08-28.298-0.161-56.597-0.229-80.66
											C1299.806,1314.813,1306.14,1311.156,1309.848,1309.016z"></path>
                      <path fill="#a2c5ff" d="M1297.158,1316.342l0.229,80.66c0.017,6.831,4.861,9.592,10.805,6.158
											c0,0.005-0.001,0.01-0.001,0.015c0-0.005,0.001-0.01,0.001-0.015l31.722-18.315c5.945-3.429,10.757-11.765,10.735-18.594
											c-0.044-15.699-6.224-27.025-16.833-30.849l-4.801-1.731c-7.621-2.746-13.371-8.869-16.605-17.678l-2.562-6.978
											c0.581-1.277,0.528-2.8-0.036-4.335c0.074,0.202,0.173,0.472,0.248,0.674c0.039,0.107,0.092,0.25,0.131,0.357
											c0.083,0.225,0.193,0.524,0.275,0.749c0.087,0.238,0.203,0.555,0.291,0.792c0.045,0.123,0.106,0.287,0.151,0.411
											c0.093,0.254,0.217,0.593,0.311,0.846c0.096,0.262,0.225,0.612,0.321,0.875c0.049,0.134,0.115,0.312,0.164,0.446
											c0.1,0.272,0.233,0.635,0.333,0.907c0.102,0.276,0.237,0.645,0.339,0.922c0.051,0.139,0.119,0.325,0.17,0.465
											c0.103,0.28,0.24,0.653,0.343,0.932c0,0,0,0,0,0c0.154,0.411,0.36,0.96,0.535,1.363c0.124,0.284,0.286,0.665,0.416,0.946
											c0.144,0.311,0.345,0.722,0.499,1.029c0.157,0.311,0.374,0.722,0.552,1.021c0.122,0.206,0.281,0.484,0.408,0.687
											c0.169,0.269,0.4,0.625,0.58,0.888c0.274,0.401,0.595,0.826,0.955,1.265c0.36,0.439,0.725,0.809,0.862,0.949
											c0.156,0.158,0.375,0.358,0.541,0.505c0.116,0.103,0.278,0.231,0.399,0.328c0.108,0.086,0.259,0.193,0.374,0.27
											c0.102,0.069,0.242,0.154,0.347,0.218c1.216,0.707,2.498,1.304,3.844,1.789l4.802,1.731
											c1.349,0.486,2.631,1.085,3.845,1.79c0.504,0.296,1.175,0.695,1.661,1.02c0.774,0.517,1.792,1.229,2.538,1.786
											c0.808,0.604,2.25,1.809,3.172,2.705c1.101,1.068,2.003,1.965,3.46,3.77c0.553,0.685,1.233,1.643,1.737,2.365
											c0.299,0.427,0.657,1.024,0.938,1.464c0.417,0.653,0.901,1.567,1.264,2.252c0.262,0.494,0.582,1.169,0.816,1.677
											c0.301,0.657,0.669,1.548,0.932,2.221c0.217,0.556,0.479,1.308,0.669,1.874c0.502,1.498,0.904,3.057,1.18,4.3
											c0.177,0.797,0.52,2.435,0.784,4.524c0.091,0.72,0.191,1.682,0.251,2.404c0.059,0.703,0.111,1.643,0.145,2.348
											c0.035,0.721,0.051,1.684,0.053,2.406c0.001,0.399-0.009,0.932-0.043,1.329c-0.033,0.379-0.066,0.885-0.125,1.261
											c-0.116,0.733-0.285,1.71-0.46,2.432c-0.186,0.765-0.59,2.184-1.189,3.626c-0.147,0.354-0.35,0.824-0.512,1.173
											c-0.162,0.35-0.389,0.811-0.567,1.153c-0.178,0.343-0.426,0.794-0.619,1.129c-0.193,0.335-0.468,0.771-0.668,1.101
											c-0.201,0.331-0.496,0.756-0.718,1.072c-0.221,0.314-0.532,0.722-0.76,1.031c-0.227,0.308-0.559,0.696-0.803,0.99
											c-0.225,0.271-1.337,1.564-2.699,2.724c-0.309,0.263-0.722,0.613-1.052,0.849c-0.594,0.424-1.405,0.961-2.024,1.346
											c0,0,0,0,0,0l0,0l-3.172,1.831l-3.172,1.831l-3.172,1.832l-3.172,1.831l-3.172,1.832l-3.172,1.832l-3.172,1.831
											l-3.172,1.832l-3.172,1.831l-3.172,1.831l0,0c0,0,0,0,0,0h0l0,0c-0.599,0.321-1.404,0.745-2.033,1.003
											c-0.608,0.25-1.445,0.521-2.081,0.686c-0.503,0.131-1.188,0.263-1.705,0.318c-0.3,0.032-0.701,0.077-1.003,0.091
											c-0.388,0.018-0.907,0.035-1.295,0.018c-0.29-0.013-0.677-0.029-0.966-0.056c-0.342-0.032-0.799-0.078-1.137-0.138
											c-0.328-0.058-0.767-0.126-1.091-0.203c-0.56-0.133-1.302-0.329-1.852-0.497c-0.101-0.031-1.199-0.391-1.953-0.729
											c-0.513-0.229-1.189-0.553-1.691-0.805c-0.275-0.138-0.628-0.347-0.897-0.496c-2.595-1.508-4.204-4.715-4.217-9.272
											l-0.241-84.896C1289.815,1312.117,1295.116,1315.179,1297.158,1316.342z"></path>
                    </g>
                    <g>
                      <g>
                        <path fill="#5e69ff" d="M1275.149,1299.961L1275.149,1299.961L1275.149,1299.961c0-1.212,0.058-2.018,0.076-2.236
												c0.049-0.604,0.068-0.831,0.126-1.306c0.074-0.602,0.151-1.056,0.191-1.273c0.199-1.093,0.412-1.801,0.436-1.878
												c0.068-0.222,0.155-0.52,0.237-0.737c0.142-0.375,0.334-0.877,0.51-1.237c0.178-0.365,0.43-0.846,0.658-1.182
												c0.156-0.23,0.363-0.538,0.533-0.758c0.184-0.238,0.435-0.551,0.645-0.766c0.445-0.455,1.059-1.043,1.56-1.435
												c0.544-0.427,1.326-0.921,1.913-1.287c0.977-0.563,1.802-0.925,2.337-1.149c1.309-0.547,2.525-0.884,2.537-0.887
												c0.396-0.106,0.922-0.252,1.321-0.345c0.404-0.095,0.945-0.217,1.355-0.283c0.413-0.066,0.963-0.173,1.379-0.22
												c0.419-0.047,0.978-0.119,1.398-0.157c0.422-0.038,0.987-0.074,1.411-0.094c0.425-0.02,0.992-0.031,1.417-0.031
												c0.425,0,0.992,0.022,1.417,0.031c0.424,0.009,0.987,0.066,1.41,0.094c0.421,0.028,0.98,0.1,1.398,0.157
												c0.414,0.056,0.964,0.152,1.377,0.219c0.012,0.002,1.27,0.219,2.689,0.634c0.908,0.266,1.764,0.567,2.543,0.897
												c0.706,0.298,1.626,0.75,2.289,1.134c0.984,0.571,1.681,1.11,1.936,1.316c0.491,0.397,1.121,0.963,1.537,1.437
												c0.726,0.829,0.97,1.217,1.37,1.879c0.148,0.246,0.324,0.587,0.442,0.849c0.166,0.368,0.363,0.87,0.502,1.248
												c0.07,0.191,0.151,0.45,0.205,0.646c0.21,0.766,0.214,0.781,0.311,1.236c0.213,1.002,0.329,1.926,0.388,2.525
												c0.046,0.469,0.08,0.914,0.101,1.323c0.029,0.575,0.029,0.575,0.042,1.52l0,0c0.002,0.653-0.091,1.305-0.278,1.951
												c-0.053,0.184-0.115,0.368-0.184,0.551c0.069-0.183,0.13-0.367,0.184-0.551c0.188-0.646,0.28-1.298,0.278-1.951
												l0.005,1.647c0.002,0.653-0.091,1.305-0.278,1.951c-0.054,0.184-0.115,0.368-0.184,0.551
												c0.069-0.183,0.13-0.367,0.184-0.551c0.187-0.646,0.28-1.298,0.278-1.951c0.002,0.792-0.027,1.388-0.028,1.394
												c-0.021,0.392-0.055,0.915-0.086,1.307c-0.016,0.2-0.044,0.465-0.068,0.664c-0.024,0.196-0.053,0.457-0.084,0.652
												c-0.057,0.366-0.138,0.854-0.208,1.218c-0.111,0.584-0.318,1.325-0.319,1.33c-0.056,0.185-0.126,0.433-0.188,0.615
												c-0.084,0.246-0.201,0.572-0.298,0.813c-0.159,0.392-0.403,0.903-0.607,1.274c-0.429,0.776-0.975,1.52-1.623,2.212
												c-0.398,0.425-0.988,0.934-1.434,1.308c-0.263,0.221-0.645,0.474-0.924,0.674c-0.143,0.102-1.095,0.728-2.174,1.25
												c-1.405,0.679-2.421,1.007-2.431,1.01c-0.386,0.124-0.895,0.307-1.286,0.41c-0.797,0.209-1.864,0.476-2.674,0.627
												c-1.292,0.242-2.593,0.364-2.779,0.377c-0.423,0.028-0.987,0.085-1.411,0.094c-0.425,0.01-0.992,0.031-1.417,0.031
												c-0.425,0-0.992-0.012-1.417-0.031c-0.424-0.019-0.989-0.056-1.412-0.094c-0.42-0.037-0.977-0.11-1.396-0.157
												c-0.416-0.047-0.964-0.153-1.377-0.22c-0.41-0.066-0.951-0.188-1.356-0.284c-0.402-0.095-0.938-0.227-1.333-0.35
												c-0.384-0.119-0.896-0.275-1.275-0.409c-0.384-0.135-0.896-0.322-1.268-0.488c-0.353-0.157-0.83-0.356-1.173-0.535
												c-0.555-0.29-1.291-0.688-1.817-1.028c-0.568-0.368-1.309-0.894-1.8-1.36c-0.251-0.239-0.598-0.545-0.827-0.805
												c-0.353-0.399-0.794-0.957-1.108-1.387c-0.196-0.268-0.418-0.653-0.572-0.947c-0.197-0.379-0.427-0.9-0.593-1.292
												c-0.083-0.197-0.177-0.466-0.24-0.67c-0.223-0.72-0.241-0.779-0.353-1.246c-0.143-0.597-0.211-0.982-0.256-1.237
												c-0.114-0.648-0.184-1.259-0.185-1.265c-0.022-0.198-0.054-0.462-0.07-0.66c-0.032-0.392-0.069-0.915-0.093-1.307
												c-0.02-0.343-0.024-0.603-0.034-1.372L1275.149,1299.961L1275.149,1299.961L1275.149,1299.961z"></path>
                        <path fill="#8c93ff" d="M1308.022,1285.87c-7.073-4.111-18.588-4.112-25.707,0
												c-7.121,4.111-7.159,10.78-0.084,14.891c7.073,4.112,18.588,4.112,25.707,0
												C1315.06,1296.65,1315.097,1289.981,1308.022,1285.87z"></path>
                      </g>
                      <g>
                        <g>
                          <path fill="#a3a3a3" d="M1275.656,1306.84c-0.151-0.789-0.154-0.804-0.219-1.248
													c-0.109-0.818-0.111-0.834-0.154-1.283c-0.031-0.375-0.068-0.875-0.09-1.25c0.035,0.701,0.101,1.363,0.192,1.968
													c0.078,0.505,0.078,0.505,0.334,2.041c0.029,0.18,0.032,0.197,0.034,0.216L1275.656,1306.84L1275.656,1306.84z"></path>
                        </g>
                        <g>
                          <path fill="#a3a3a3" d="M1277.578 1307.119c-.437-.465-.815-.943-1.134-1.431.003 1.12.078 2.159.208 3.055.148.822.378 1.423.747 1.947.12.131.37.405.402-.08.009-.135-.014-.316-.028-.451C1277.652 1309.273 1277.581 1308.239 1277.578 1307.119L1277.578 1307.119zM1281.901 1310.253c-.32-.163-.632-.334-.938-.511-.372-.216-.726-.439-1.062-.667.003 1.12.065 2.146.171 3.019.153.802.503 1.355 1.134 1.792.616.298.869.111.845-.626C1281.959 1312.394 1281.905 1311.373 1281.901 1310.253L1281.901 1310.253zM1287.699 1312.317c-.839-.193-1.659-.42-2.454-.682.006.741.015 1.755.114 2.991.091.52.322 1.163 1.31 1.523.759.143 1.094-.111 1.118-.849C1287.734 1314.451 1287.702 1313.437 1287.699 1312.317L1287.699 1312.317zM1294.167 1313.122c-.89-.024-1.777-.081-2.655-.173.003.698.009 1.753.047 2.977.069.504.284 1.103 1.342 1.258 1.044-.018 1.235-.559 1.285-1.087C1294.177 1315.252 1294.17 1314.242 1294.167 1313.122L1294.167 1313.122zM1300.722 1312.667c-.862.146-1.738.258-2.621.335.003 1.12-.005 2.131-.023 2.977.044.525.227 1.055 1.254 1.009 1.047-.22 1.265-.833 1.338-1.341C1300.707 1314.799 1300.725 1313.787 1300.722 1312.667L1300.722 1312.667zM1306.783 1310.952c-.756.316-1.542.597-2.351.844.003 1.12-.03 2.136-.09 2.99.015.737.33.969 1.055.776C1306.791 1314.936 1306.789 1314.092 1306.783 1310.952L1306.783 1310.952zM1311.663 1308.057c-.524.444-1.106.871-1.748 1.279.003 1.12-.051 2.145-.149 3.016-.025.52.041.996.717.583.552-.468.864-1.038 1.013-1.848C1311.605 1310.207 1311.666 1309.177 1311.663 1308.057L1311.663 1308.057zM1314.467 1304.515c-.231.502-.522.997-.871 1.481.003 1.12-.065 2.158-.188 3.051-.057.5-.05.65.036.727.078-.023.103-.052.207-.208.29-.547.481-1.159.619-1.984C1314.399 1306.679 1314.47 1305.635 1314.467 1304.515L1314.467 1304.515z"></path>
                        </g>
                        <g>
                          <path fill="#a3a3a3" d="M1277.957 1301.766c.171-1.587-.485-2.275-.817-2.074-.192.116-.258.406-.321.685-.185 1.105-.292 2.417-.287 3.804.327.482.713.953 1.156 1.411C1277.684 1304.205 1277.784 1302.885 1277.957 1301.766L1277.957 1301.766zM1282.232 1304.799c.071-1.768-1.24-2.252-1.703-1.775-.166.171-.221.429-.266.637-.15 1.139-.236 2.471-.232 3.857.296.197.605.389.927.576.348.203.707.396 1.074.58C1282.029 1307.288 1282.103 1305.949 1282.232 1304.799L1282.232 1304.799zM1287.904 1306.785c-.04-1.675-1.553-2.008-2.13-1.35-.184.21-.212.372-.269.694-.096 1.164-.15 2.511-.146 3.898.791.256 1.606.478 2.438.667C1287.793 1309.307 1287.833 1307.956 1287.904 1306.785L1287.904 1306.785zM1294.214 1307.555c-.142-1.631-1.789-1.669-2.347-.91-.182.247-.202.414-.243.745-.033 1.177-.051 2.531-.046 3.918.871.089 1.75.145 2.631.167C1294.206 1310.089 1294.208 1308.734 1294.214 1307.555L1294.214 1307.555zM1300.606 1307.108c-.228-1.568-1.687-1.276-2.212-.668-.303.35-.323.678-.343.995.033 1.177.054 2.532.058 3.919.874-.077 1.742-.188 2.596-.332C1300.701 1309.635 1300.665 1308.283 1300.606 1307.108L1300.606 1307.108zM1306.52 1305.445c-.292-1.495-1.616-.927-2.045-.237-.251.405-.251.735-.251 1.055.096 1.165.155 2.513.158 3.9.802-.243 1.582-.521 2.333-.831C1306.712 1307.945 1306.64 1306.602 1306.52 1305.445L1306.52 1305.445zM1311.304 1302.636c-.312-1.382-1.164-.578-1.358-.306-.425.597-.382 1.239-.362 1.547.151 1.141.242 2.474.246 3.861.641-.402 1.224-.824 1.748-1.262C1311.574 1305.09 1311.473 1303.764 1311.304 1302.636L1311.304 1302.636zM1314.091 1299.194c-.237-1.03-.543-.688-.664-.493-.115.186-.365.746-.209 1.933.189 1.107.301 2.421.305 3.808.354-.478.65-.967.887-1.463C1314.407 1301.592 1314.289 1300.287 1314.091 1299.194L1314.091 1299.194z"></path>
                        </g>
                      </g>
                    </g>
                    <g>
                      <g>
                        <path fill="#5e69ff" d="M1331.25,1232.596L1331.25,1232.596L1331.25,1232.596
												c-0.505,0.292-0.826,0.509-0.912,0.569c-0.24,0.166-0.329,0.228-0.513,0.366c-0.233,0.176-0.403,0.317-0.484,0.385
												c-0.407,0.345-0.651,0.604-0.677,0.633c-0.076,0.082-0.179,0.189-0.25,0.276c-0.122,0.149-0.285,0.35-0.392,0.51
												c-0.109,0.162-0.249,0.382-0.334,0.558c-0.058,0.12-0.137,0.28-0.188,0.404c-0.055,0.134-0.125,0.313-0.164,0.452
												c-0.082,0.294-0.18,0.692-0.223,0.994c-0.047,0.329-0.065,0.774-0.076,1.106c0,0.542,0.048,0.972,0.083,1.249
												c0.087,0.676,0.239,1.264,0.24,1.269c0.051,0.19,0.117,0.444,0.174,0.633c0.058,0.191,0.137,0.445,0.208,0.632
												c0.072,0.188,0.159,0.442,0.24,0.627c0.081,0.186,0.185,0.436,0.271,0.62c0.086,0.185,0.206,0.429,0.3,0.61
												c0.094,0.182,0.225,0.42,0.328,0.597c0.102,0.177,0.248,0.408,0.354,0.582c0.106,0.174,0.264,0.395,0.378,0.564
												c0.113,0.168,0.277,0.384,0.401,0.544c0.123,0.159,0.295,0.365,0.422,0.52c0.004,0.005,0.396,0.476,0.91,0.967
												c0.329,0.314,0.66,0.598,0.984,0.843c0.294,0.222,0.703,0.497,1.022,0.68c0.474,0.272,0.867,0.433,1.013,0.49
												c0.283,0.109,0.67,0.235,0.968,0.294c0.52,0.103,0.74,0.111,1.112,0.119c0.138,0.003,0.322-0.006,0.46-0.02
												c0.193-0.019,0.449-0.058,0.641-0.091c0.096-0.017,0.223-0.046,0.318-0.07c0.37-0.097,0.377-0.099,0.59-0.168
												c0.468-0.152,0.881-0.326,1.144-0.445c0.206-0.093,0.4-0.186,0.575-0.276c0.246-0.126,0.246-0.126,0.643-0.348l0,0
												c0.272-0.156,0.522-0.352,0.745-0.585c0.064-0.067,0.126-0.136,0.185-0.209c-0.06,0.073-0.121,0.142-0.185,0.209
												c-0.224,0.233-0.473,0.429-0.745,0.585l0.687-0.394c0.272-0.156,0.521-0.352,0.745-0.585
												c0.064-0.067,0.126-0.136,0.185-0.209c-0.06,0.073-0.121,0.142-0.185,0.209c-0.224,0.233-0.473,0.429-0.745,0.585
												c0.33-0.189,0.571-0.345,0.573-0.346c0.158-0.103,0.368-0.243,0.524-0.35c0.079-0.055,0.183-0.13,0.26-0.188
												c0.076-0.057,0.177-0.132,0.251-0.192c0.139-0.112,0.322-0.263,0.457-0.379c0.216-0.187,0.475-0.45,0.477-0.453
												c0.063-0.068,0.15-0.157,0.211-0.227c0.082-0.094,0.19-0.221,0.267-0.319c0.125-0.16,0.279-0.385,0.384-0.559
												c0.22-0.365,0.399-0.771,0.531-1.207c0.081-0.268,0.151-0.636,0.2-0.911c0.029-0.162,0.042-0.382,0.058-0.547
												c0.008-0.084,0.04-0.631-0.002-1.205c-0.055-0.748-0.162-1.25-0.164-1.255c-0.041-0.19-0.087-0.446-0.139-0.634
												c-0.105-0.382-0.25-0.89-0.381-1.264c-0.21-0.596-0.472-1.167-0.511-1.248c-0.09-0.183-0.202-0.431-0.3-0.61
												c-0.098-0.179-0.225-0.42-0.328-0.597c-0.102-0.177-0.244-0.41-0.354-0.582c-0.11-0.172-0.261-0.398-0.378-0.565
												c-0.117-0.166-0.281-0.381-0.401-0.544c-0.119-0.162-0.295-0.364-0.422-0.52c-0.126-0.155-0.307-0.351-0.444-0.496
												c-0.136-0.145-0.32-0.336-0.466-0.471c-0.142-0.131-0.33-0.307-0.477-0.433c-0.149-0.127-0.35-0.295-0.508-0.411
												c-0.15-0.109-0.348-0.26-0.505-0.359c-0.254-0.161-0.597-0.372-0.865-0.509c-0.29-0.148-0.687-0.33-0.999-0.422
												c-0.16-0.047-0.371-0.118-0.534-0.151c-0.251-0.051-0.589-0.101-0.844-0.128c-0.159-0.017-0.373-0.017-0.532-0.01
												c-0.205,0.009-0.477,0.038-0.68,0.064c-0.102,0.013-0.237,0.038-0.337,0.061c-0.354,0.08-0.382,0.087-0.604,0.152
												c-0.283,0.084-0.46,0.148-0.577,0.191c-0.297,0.108-0.568,0.226-0.571,0.227c-0.087,0.039-0.205,0.089-0.292,0.129
												c-0.171,0.081-0.398,0.191-0.567,0.276c-0.148,0.074-0.257,0.135-0.58,0.316L1331.25,1232.596L1331.25,1232.596
												L1331.25,1232.596z"></path>
                        <path fill="#8c93ff" d="M1333.285,1249.668c-3.412-1.957-6.18-6.75-6.179-10.702c0-3.953,2.767-5.571,6.179-3.614
												c3.412,1.956,6.179,6.75,6.179,10.702C1339.465,1250.007,1336.697,1251.626,1333.285,1249.668z"></path>
                      </g>
                      <g>
                        <g>
                          <path fill="#a3a3a3" d="M1334.236,1231.154c-0.365,0.127-0.372,0.129-0.573,0.209
													c-0.367,0.151-0.374,0.154-0.571,0.244c-0.164,0.077-0.38,0.182-0.542,0.263c0.3-0.154,0.592-0.285,0.865-0.393
													c0.229-0.089,0.229-0.089,0.93-0.351c0.082-0.031,0.09-0.034,0.098-0.038L1334.236,1231.154L1334.236,1231.154z"></path>
                        </g>
                        <g>
                          <path fill="#a3a3a3" d="M1334.814 1231.887c-.298-.07-.589-.113-.868-.128.467-.268.918-.486 1.322-.647.378-.136.683-.184.99-.157.084.018.258.057.063.187-.054.036-.135.07-.194.097C1335.728 1231.4 1335.281 1231.619 1334.814 1231.887L1334.814 1231.887zM1337.158 1232.934c-.145-.094-.291-.183-.438-.267-.18-.103-.357-.197-.533-.282.467-.268.909-.489 1.298-.654.371-.129.685-.116 1.018.041.272.185.255.335-.058.502C1338.063 1232.443 1337.625 1232.666 1337.158 1232.934L1337.158 1232.934zM1339.41 1234.851c-.282-.303-.574-.59-.874-.858.31-.175.734-.416 1.273-.671.238-.087.562-.145.949.179.242.282.217.482-.085.67C1340.307 1234.353 1339.878 1234.583 1339.41 1234.851L1339.41 1234.851zM1341.3 1237.35c-.224-.365-.461-.72-.71-1.064.291-.166.732-.418 1.251-.696.226-.092.527-.147.846.256.244.439.064.649-.144.796C1342.189 1236.842 1341.767 1237.082 1341.3 1237.35L1341.3 1237.35zM1342.686 1240.188c-.146-.394-.31-.785-.49-1.172.467-.268.886-.514 1.234-.725.229-.108.494-.159.722.28.16.489-.042.727-.237.88C1343.57 1239.67 1343.153 1239.921 1342.686 1240.188L1342.686 1240.188zM1343.429 1243.124c-.05-.391-.122-.785-.214-1.181.467-.268.882-.526 1.223-.756.31-.171.483-.095.577.253C1345.089 1242.169 1344.738 1242.371 1343.429 1243.124L1343.429 1243.124zM1343.396 1245.851c.059-.325.097-.67.112-1.035.467-.268.881-.537 1.22-.787.21-.135.425-.223.415.158-.062.342-.224.609-.526.866C1344.278 1245.31 1343.864 1245.583 1343.396 1245.851L1343.396 1245.851zM1342.596 1247.87c.153-.217.29-.457.407-.718.467-.268.883-.546 1.225-.812.195-.144.259-.177.311-.16.009.038.003.055-.037.136-.158.252-.367.479-.677.734C1343.481 1247.321 1343.064 1247.602 1342.596 1247.87L1342.596 1247.87z"></path>
                        </g>
                        <g>
                          <path fill="#a3a3a3" d="M1332.677 1233.332c-.62.453-1.064.345-1.06.158.002-.108.107-.205.208-.298.416-.343.936-.702 1.515-1.034.279.02.568.067.865.142C1333.626 1232.631 1333.101 1232.99 1332.677 1233.332L1332.677 1233.332zM1334.967 1234.382c-.719.454-1.235.025-1.148-.282.031-.11.125-.195.201-.264.438-.336.972-.692 1.55-1.023.153.076.307.158.463.247.168.097.334.199.5.308C1335.954 1233.699 1335.414 1234.052 1334.967 1234.382L1334.967 1234.382zM1337.157 1236.266c-.707.386-1.209-.164-1.074-.562.043-.127.104-.178.224-.279.462-.32 1.009-.666 1.587-.998.297.268.585.553.863.854C1338.18 1235.614 1337.627 1235.955 1337.157 1236.266L1337.157 1236.266zM1338.994 1238.708c-.713.333-1.125-.344-.943-.758.059-.135.124-.184.252-.28.482-.297 1.042-.629 1.62-.961.246.341.481.694.702 1.055C1340.047 1238.095 1339.483 1238.422 1338.994 1238.708L1338.994 1238.708zM1340.344 1241.476c-.708.282-.937-.395-.81-.76.073-.21.205-.297.332-.382.498-.269 1.067-.586 1.645-.918.178.383.34.771.486 1.161C1341.419 1240.908 1340.847 1241.218 1340.344 1241.476L1340.344 1241.476zM1341.073 1244.338c-.693.237-.774-.45-.59-.794.108-.202.246-.281.379-.358.508-.24 1.083-.54 1.662-.871.091.392.163.784.215 1.171C1342.16 1243.817 1341.584 1244.11 1341.073 1244.338L1341.073 1244.338zM1341.054 1247.005c-.651.202-.521-.346-.454-.492.146-.32.424-.457.557-.522.511-.211 1.088-.494 1.666-.826-.013.364-.049.707-.105 1.031C1342.14 1246.528 1341.564 1246.804 1341.054 1247.005L1341.054 1247.005zM1340.291 1248.992c-.486.149-.417-.061-.365-.158.05-.093.223-.332.754-.552.506-.188 1.08-.457 1.659-.788-.114.262-.246.503-.396.721C1341.365 1248.547 1340.793 1248.812 1340.291 1248.992L1340.291 1248.992z"></path>
                        </g>
                      </g>
                    </g>
                    <g>
                      <path fill="#694bcc" d="M1313.705,1280.161l8.24,4.789c-3.895-2.264-7.434-6.707-8.367-13.767l-8.24-4.789
											C1306.271,1273.454,1309.81,1277.897,1313.705,1280.161z"></path>
                      <g>
                        <path fill="#e6e6e6" d="M1288.093,1266.379c6.414-7.923,14.048-14.698,22.083-19.337
												c8.172-4.717,16.758-7.225,24.889-6.479c0.183,0.018,0.417-0.058,0.679-0.185c1.542-0.743,2.702,0.121,2.564,1.974
												l-0.291,3.902c-0.131,1.758-1.36,3.665-2.733,4.458c-0.295,0.171-0.598,0.29-0.897,0.344l-6.36,4.66l-14.449,15.466
												l-7.626,4.267l-2.501,18.421l-10.504,4.343c0.151-1.536-1.05-12.275-2.356-20.01c-0.302-1.785-2.044-3.781-3.569-5.228
												C1285.737,1271.755,1286.245,1268.662,1288.093,1266.379z"></path>
                        <path fill="#845eff" d="M1328.027,1255.716c-5.585,12.103,1.229,23.528,6.337,25.974l-5.554,5.077
												c-5.619,0.285-13.744-4.319-15.232-15.584L1328.027,1255.716z"></path>
                      </g>
                      <path fill="#fff" d="M1279.853,1261.59c6.414-7.923,14.048-14.698,22.083-19.337
											c8.172-4.717,16.758-7.225,24.889-6.48c0.183,0.018,0.417-0.058,0.679-0.185c0.698-0.337,1.318-0.344,1.775-0.078
											l8.24,4.789c-0.456-0.266-1.077-0.258-1.775,0.078c-0.262,0.127-0.496,0.203-0.679,0.185
											c-8.131-0.746-16.718,1.762-24.889,6.479c-8.035,4.639-15.669,11.413-22.083,19.337c-1.849,2.283-2.356,5.377-1.071,6.597
											l-8.24-4.789C1277.497,1266.967,1278.005,1263.874,1279.853,1261.59z"></path>
                      <path fill="#ccc" d="M1287.022,1272.976c1.524,1.447,3.267,3.442,3.569,5.228
											c1.306,7.735,2.507,18.474,2.356,20.01l-7.174-4.254c0.151-1.535-2.116-12.81-3.422-20.545
											c-0.302-1.785-2.044-3.781-3.569-5.228L1287.022,1272.976z"></path>
                    </g>
                    <g>
                      <path fill="#fff" d="M1315.513,1391.042c2.692,0,5.523-0.846,8.414-2.515c4.572-2.64,8.845-7.135,12.032-12.657
											c3.185-5.52,4.931-11.454,4.916-16.708c-0.011-4.039-1.069-7.476-3.058-9.94c-2.097-2.597-5.029-3.969-8.481-3.969
											c-2.692,0-5.522,0.846-8.413,2.515c-4.573,2.64-8.846,7.135-12.032,12.657c-3.185,5.52-4.931,11.453-4.917,16.707
											c0.012,4.04,1.069,7.477,3.058,9.941C1309.129,1389.669,1312.061,1391.042,1315.513,1391.042z"></path>
                      <g>
                        <path fill="#73cdff" d="M1317.164,1358.349c-0.163,0.094-0.329,0.226-0.49,0.395
												c-0.655,0.69-0.964,1.732-0.691,2.329c0.19,0.414,0.611,0.504,1.07,0.288c0.245,0.735,0.399,1.484,0.407,2.19
												c-0.74,0.971-1.399,2.029-1.952,3.129c-0.049-0.003-0.098-0.007-0.147-0.011c0.039-0.412-0.112-0.724-0.417-0.775
												c-0.155-0.025-0.328,0.02-0.498,0.119c-0.302,0.175-0.598,0.517-0.773,0.932c-0.274,0.651-0.149,1.234,0.279,1.304
												c0.154,0.025,0.327-0.02,0.497-0.119c0.158-0.091,0.315-0.229,0.453-0.398c0.035,0.01,0.069,0.021,0.102,0.032
												c-0.302,0.706-0.559,1.422-0.766,2.138c-0.03,0.018-0.059,0.036-0.09,0.053c-0.429,0.248-0.938,0.415-1.492,0.542
												c-0.041-0.366-0.267-0.585-0.609-0.526c-0.102,0.017-0.206,0.058-0.308,0.116c-0.379,0.219-0.733,0.695-0.866,1.205
												c-0.168,0.649,0.085,1.108,0.565,1.026c0.102-0.017,0.205-0.057,0.307-0.116c0.232-0.134,0.455-0.365,0.624-0.642
												c0.596-0.036,1.112,0.024,1.448,0.223c-0.105,0.671-0.16,1.334-0.158,1.979c0.001,0.432,0.028,0.843,0.078,1.232
												c-0.159-0.054-0.359-0.024-0.572,0.099c-0.043,0.025-0.088,0.054-0.132,0.087c-0.503,0.374-0.85,1.111-0.776,1.647
												c0.068,0.49,0.462,0.642,0.912,0.383c0.044-0.025,0.088-0.054,0.132-0.087c0.301-0.224,0.546-0.579,0.679-0.943
												c0.136,0.468,0.314,0.89,0.529,1.267c-0.389,0.714-0.938,1.505-1.579,2.344c-0.215-0.044-0.469,0.013-0.726,0.162
												c-0.215,0.124-0.433,0.312-0.633,0.56c-0.615,0.759-0.826,1.784-0.473,2.288c0.238,0.34,0.672,0.358,1.118,0.1
												c0.216-0.125,0.435-0.314,0.635-0.562c0.428-0.528,0.659-1.184,0.643-1.705c0.726-0.808,1.431-1.496,2.044-1.944
												c0.556,0.458,1.218,0.753,1.959,0.87c-0.074,0.27-0.161,0.555-0.259,0.854c-0.356,0.205-0.676,0.595-0.84,1.051
												c-0.234,0.654-0.059,1.193,0.392,1.204c0.137,0.004,0.283-0.042,0.427-0.125c0.331-0.191,0.65-0.582,0.814-1.038
												c0.163-0.454,0.127-0.852-0.06-1.058c0.12-0.288,0.245-0.568,0.372-0.833c0.86-0.016,1.803-0.248,2.796-0.712
												c0.246,0.486,0.4,1.211,0.507,2.067c-0.407,0.515-0.663,1.193-0.618,1.748c0.059,0.738,0.621,0.995,1.282,0.614
												c0.036-0.021,0.072-0.044,0.109-0.068c0.706-0.476,1.229-1.493,1.166-2.271c-0.043-0.541-0.357-0.822-0.782-0.784
												c-0.003-0.852,0.06-1.682,0.213-2.424c0.572-0.416,1.126-0.889,1.654-1.407c0.288,0.159,0.565,0.446,0.839,0.805
												c-0.196,0.432-0.23,0.885-0.055,1.152c0.168,0.255,0.485,0.272,0.811,0.084c0.149-0.086,0.3-0.215,0.439-0.383
												c0.445-0.537,0.608-1.274,0.364-1.647c-0.168-0.255-0.484-0.272-0.81-0.084c-0.206-0.382-0.353-0.785-0.428-1.184
												c0.578-0.689,1.113-1.432,1.597-2.209c0.207,0.051,0.419,0.126,0.637,0.22c-0.105,0.433-0.025,0.812,0.237,0.952
												c0.179,0.096,0.41,0.062,0.64-0.072c0.241-0.139,0.481-0.386,0.661-0.704c0.352-0.624,0.34-1.287-0.026-1.483
												c-0.179-0.095-0.41-0.061-0.64,0.072c-0.097,0.056-0.194,0.13-0.288,0.219c-0.189-0.138-0.36-0.289-0.507-0.449
												c0.326-0.618,0.62-1.252,0.875-1.893c0.04-0.025,0.08-0.049,0.12-0.073c0.642-0.371,1.419-0.573,2.266-0.694
												c0.025,0.532,0.311,0.876,0.778,0.838c0.166-0.014,0.338-0.074,0.508-0.172c0.498-0.287,0.97-0.895,1.177-1.574
												c0.278-0.91-0.025-1.604-0.678-1.55c-0.165,0.014-0.337,0.074-0.506,0.172c-0.294,0.17-0.58,0.453-0.808,0.795
												c-0.844-0.03-1.564-0.195-1.996-0.562c0.194-0.925,0.297-1.841,0.295-2.726c-0.001-0.378-0.021-0.739-0.06-1.083
												c0.167,0.2,0.455,0.226,0.774,0.041c0.034-0.02,0.068-0.042,0.103-0.066c0.505-0.356,0.868-1.089,0.81-1.637
												c-0.054-0.51-0.453-0.681-0.916-0.413c-0.034,0.019-0.068,0.042-0.103,0.066c-0.351,0.247-0.633,0.677-0.753,1.1
												c-0.145-0.354-0.257-0.715-0.393-1.05c0.285-0.623,0.806-1.341,1.443-2.109c0.163,0.052,0.364,0.015,0.569-0.103
												c0.135-0.078,0.272-0.192,0.401-0.339c0.456-0.52,0.644-1.263,0.42-1.659c-0.161-0.283-0.489-0.313-0.829-0.116
												c-0.135,0.078-0.273,0.192-0.403,0.341c-0.317,0.361-0.504,0.83-0.513,1.216c-0.606,0.622-1.187,1.13-1.665,1.406
												c-0.056,0.032-0.11,0.061-0.163,0.087c-0.375-0.464-0.821-0.828-1.328-1.085c0.09-0.794,0.425-1.847,0.883-3.037
												c0.047-0.021,0.094-0.046,0.142-0.073c0.425-0.245,0.84-0.727,1.083-1.31c0.378-0.907,0.198-1.717-0.402-1.808
												c-0.214-0.033-0.452,0.031-0.688,0.166c-0.425,0.245-0.84,0.728-1.083,1.312c-0.263,0.631-0.256,1.214-0.026,1.541
												c-0.512,1.078-1.054,2.049-1.587,2.769c-0.206-0.013-0.418-0.012-0.635,0.002c0.035-0.336,0.096-0.71,0.174-1.11
												c0.336-0.256,0.628-0.7,0.733-1.16c0.146-0.644-0.13-1.076-0.617-0.965c-0.089,0.02-0.18,0.058-0.268,0.109
												c-0.394,0.228-0.758,0.732-0.878,1.259c-0.101,0.448,0.002,0.792,0.236,0.924c-0.108,0.38-0.226,0.746-0.353,1.089
												c-0.665,0.153-1.365,0.421-2.088,0.808c-0.008-0.114-0.015-0.231-0.02-0.352c0.306-0.348,0.516-0.83,0.514-1.247
												c-0.002-0.584-0.414-0.82-0.923-0.527c-0.509,0.293-0.919,1.004-0.918,1.589c0.001,0.406,0.201,0.643,0.494,0.652
												c-0.009,0.139-0.021,0.278-0.035,0.415c-0.749,0.493-1.471,1.085-2.151,1.754c-0.368-0.292-0.703-0.78-1.023-1.376
												c0.313-0.59,0.417-1.245,0.222-1.672C1318.148,1358.125,1317.669,1358.058,1317.164,1358.349z"></path>
                      </g>
                      <path fill="#ff685b" d="M1322.374,1350.281c8.572-4.949,15.57-0.961,15.598,8.889
											c0.028,9.852-6.925,21.894-15.497,26.843c-8.574,4.95-15.57,0.961-15.598-8.89
											C1306.849,1367.273,1313.8,1355.231,1322.374,1350.281z M1314.221,1385.2l0.163-0.282c0.198,0.06,0.402,0.112,0.609,0.155
											c2.134,0.44,4.708-0.067,7.475-1.665c7.323-4.228,13.262-14.513,13.238-22.929c-0.009-3.179-0.868-5.643-2.328-7.251
											c-0.142-0.156-0.289-0.304-0.442-0.443l0,0l-18.552,32.133L1314.221,1385.2L1314.221,1385.2z M1312.212,1383.768
											c0.158,0.128,0.321,0.248,0.49,0.36l18.698-32.386l0,0c-0.182-0.088-0.369-0.167-0.56-0.239
											c-2.304-0.856-5.253-0.468-8.459,1.383c-7.323,4.228-13.262,14.514-13.238,22.929
											C1309.154,1379.5,1310.306,1382.224,1312.212,1383.768z"></path>
                    </g>
                  </g>
                </g>
                <path fill="#f0c7ad" d="M1316.603 1291.694c-6.876 2.53-14.716 16.081-9.512 30.224 5.204 14.143 13.646 22.604 20.789 23.172 7.304.58 9.316-18.19 4.113-32.333C1326.789 1298.614 1323.48 1289.165 1316.603 1291.694zM1290.859 1286.81c1.044-.882 2.637-.806 3.504.252 2.671 3.266 3.379 9.746-2.902 14.173-5.539 3.905-15.243 10.538-14.264 20.161l-25.366 4.545c0 0 8.824-15.498 11.004-18.787C1266.928 1300.977 1286.89 1290.163 1290.859 1286.81z"></path>
              </g>
              <g>
                <g>
                  <path fill="#6694e9" d="M1008.947,1073.12c-5.538-16.69-34.174-38.618-48.417-28.304
									c-17.704,12.821-56.764,241.853-50.663,266.197c8.168,32.594,59.858-6.342,72.15-16.654
									C998.568,1280.475,1013.446,1086.678,1008.947,1073.12z"></path>
                </g>
              </g>
              <g>
                <g>
                  <g>
                    <path fill="#c47350" d="M1016.198,1643.066c13.988,36.573,0.558,317.718-1.47,323.203
										c-10.577,28.607-73.596-11.724-77.485-21.447c-8.26-36.428,0.78-136.853-14.14-220.638
										c-21.364-57.502-7.738-101.824,4.139-113.719C972.141,1565.5,1008.314,1622.455,1016.198,1643.066z"></path>
                  </g>
                  <path fill="#f0c7ad" d="M1100.487,1078.942c2.438,7.472,0.051,18.854,0.885,30.257
									c1.678,22.932,4.966,43.626,0.214,65.433c-5.515,25.305-10.972,45.634-41.034,31.718
									c-27.991-12.958-45.711-18.251-43.716-59.24c1.042-21.41-71.246-1.042-77.932-32.03
									c-11.866-54.994,26.822-97.722,68.655-100.169C1056.054,1012.073,1083.49,1026.852,1100.487,1078.942z"></path>
                  <g>
                    <g>
                      <path fill="#db815a" d="M1085.328,1952.264c-7.321-52.616-35.611-131.427-51.318-156.094
											c-39.012-61.265-76.897-79.985-55.36-201.081l142.414,46.978c11.849,92.006,57.4,256.689,53.804,333.909
											C1172.482,2027.186,1085.328,1952.264,1085.328,1952.264z"></path>
                    </g>
                  </g>
                  <path fill="#4e79bf" d="M1135.265,1662.274c5.228-7.98-18.569-37.084-20.668-110.366
									c-1.336-46.662,44.841-139.643,45.144-164.116c0.431-34.733-30.049-70.298-53.143-91.244
									c-34.581-31.364-150.844-77.926-192.87-42.772c-24.983,20.898,22.725,169.327,29.356,257.985
									c4.346,58.099-24.509,75.126-25.105,102.3C915.489,1727.748,1098.149,1718.925,1135.265,1662.274z"></path>
                  <g>
                    <path fill="#ffeede" d="M1097.005,1277.647c-9.359-7.436-26.157-7.019-62.173-4.624
										c-41.468,2.756-98.27,6.537-108.643-18.855l-2.742-6.716l-13.433,5.487l2.742,6.717
										c14.329,35.075,74.607,31.06,123.039,27.845c20.195-1.343,62.615,0.331,70.516,8.935
										C1106.311,1296.436,1109.823,1287.831,1097.005,1277.647z"></path>
                  </g>
                  <path fill="#5c3f2a" d="M904.115,1256.909c-11.214-12.855-23.66-13.905-29.267-30.735
									c-3.148-9.451,6.656-21.734,5.858-27.798c-1.668-12.676-3.094-22.919-2.568-29.228c1.097-13.16,28.429-19.554,26.203-30.902
									c-1.381-7.04-4.979-13.004-6.112-20.088c-1.554-9.717,8.308-16.519,6.714-26.229c-1.359-8.274,5.999-10.328,5.948-18.713
									c-0.071-11.672,7.183-18.489,11.223-26.413c21.687-42.539,104.415-51.611,143.763-25.513
									c17.273,11.457,26.227,31.957,28.497,56.505c1.102,11.919-2.591,24.537-3.336,38.028
									c-0.707,12.81,3.332,25.503,1.001,39.029c-1.817,10.543-17.775,21.339-19.792,31.843c-2.18,11.354,9.606,38.506,7.677,49.35
									c-1.818,10.221-12.564,19.198-13.725,28.551c-4.157,8.211-23.769,11.184-34.013,15.535
									c-10.244,4.351-20.2,14.948-33.509,16.085c-13.399,1.145-23.71-14.712-37.142-16.167
									c-13.595-1.473-29.83,10.317-40.282,6.862C910.844,1283.469,908.241,1261.639,904.115,1256.909z"></path>
                </g>
                <ellipse cx="1033.726" cy="2355.567" opacity=".1" rx="121.212" ry="209.275" transform="rotate(-80.701 1033.629 2355.44)"></ellipse>
                <g>
                  <g>
                    <path fill="#fff" d="M1117.693,2336.916c-51.77,20.763-126.813,46.768-152.199,27.192
										c-12.543-9.672-8.111-76.387,1.149-81.996c2.266-1.373,4.455-0.272,8.497,0.04c2.843,0.22,6.774,7.029,13.676,7.156
										c22.416,0.414,54.241-7.844,64.59-2.947c6.187,3.875,32.217,10.683,52.369,7.463c14.084-2.25,34.846-20.371,41.411-13.595
										C1159.366,2292.8,1149.438,2324.183,1117.693,2336.916z"></path>
                    <path fill="#7987d9" d="M1115.429,2322.322c-51.769,20.764-126.813,46.768-152.199,27.192
										c-12.543-9.672-8.442-60.59,0.818-66.199c2.266-1.373,4.455-0.272,8.496,0.04c2.843,0.22,6.774,7.029,13.676,7.156
										c22.416,0.414,142.616-28.707,159.478-13.889C1158.847,2288.177,1147.174,2309.59,1115.429,2322.322z"></path>
                  </g>
                  <path fill="#ffcba2" d="M956.934,2312.408c15.803,17.921,43.722,17.329,69.445-14.261l-20.408-76.01l-61.088,16.334
									L956.934,2312.408z"></path>
                  <path fill="#ba6d4c" d="M937.243,1941.101c14.331-9.386,73.51,8.733,77.485,22.674
									c3.975,13.941-30.936,56.778-10.978,270.455c-3.131,19.583-57.205,16.978-59.091,3.49
									C936.853,2181.897,910.008,1958.938,937.243,1941.101z"></path>
                  <polygon fill="#ffcba2" points="1072.824 2282.038 1017.048 2248.476 1056.482 2190.687 1103.13 2222.968"></polygon>
                  <path fill="#cf7a55" d="M1102.965,2223.695c-20.464-3.875-37.016-0.394-52.816-21.797
									c28.014-94.449,18.859-240.897,36.667-251.867c30.507-18.793,92.061,18.498,86.418,37.243
									C1167.736,2005.536,1102.965,2223.695,1102.965,2223.695z"></path>
                  <path fill="#92a2ff" d="M1084.151,2264.567c-13.181,26.823-38.715,44.416-54.909,64.091
									c-18.606,22.606-22.354,46.83-43.057,45.856l2.003-170.342c15.168-2.19,38.031,1.523,50.97,5.7
									C1032.683,2257.751,1050.168,2284.684,1084.151,2264.567z"></path>
                  <path fill="#fff" d="M1011.519,2208.634c-0.749-1.648-1.614-3.193-2.567-4.595
									c-7.4-0.664-14.697-0.743-20.763,0.133l-2.003,170.342c8.183,0.385,13.718-3.185,18.568-9.027
									C1006.369,2363.54,1029.541,2248.276,1011.519,2208.634z"></path>
                  <path fill="#cfcfcf" d="M985.808,2374.477c-6.366,2.969-25.898-42.523-11.746-101.289
									c-0.076-29.615-7.947-58.215,10.857-67.846c5.613-2.875,11.012,1.603,14.039,8.233
									C1012.341,2242.881,993.021,2375.131,985.808,2374.477z"></path>
                </g>
              </g>
              <path fill="#ffeede" d="M1119.099,2023.977l66.588-38.848c0,0-53.775-323.233-57.583-392.135
							c-4.765-86.224,58.727-209.141,20.858-239.186l-25.984-6.872c0,0-22.98,92.851-42.291,165.321
							c-11.438,42.922-35.524,71.118-35.883,93.554c-0.665,41.494,53.452,120.601,64.078,189.67
							C1126.183,1907.949,1119.099,2023.977,1119.099,2023.977z"></path>
              <path fill="#f0c7ad" d="M1398.015,1238.021c-0.196-1.354,0.713-2.665,2.069-2.839
							c4.185-0.536,10.057,2.295,10.487,9.967c0.379,6.766,0.868,18.51,9.55,22.776l-9.576,23.925c0,0-8.474-15.692-10.11-19.283
							C1397.362,1265.824,1398.758,1243.163,1398.015,1238.021z"></path>
              <g>
                <g>
                  <path fill="#6694e9" d="M1278.038,1422.679c14.078,11.715,10.745,56.007-7.468,57.93
									c-12.698,1.341-181.084-79.383-196.971-100.139c-28.956-37.832,23.417-53.552,50.604-45.01
									C1145.668,1342.203,1272.069,1417.712,1278.038,1422.679z"></path>
                  <path fill="#405d94" d="M1285.061,1393.127c9.526-7.912,21.053-17.28,34.369-28.278
									c21.74-5.558,45.291,31.411,42.328,46.904c-29.708,28.657-54.64,49.811-72.621,59.898L1285.061,1393.127z"></path>
                  <path fill="#f0c7ad" d="M1431.527,1334.765c0,0-120.36,133.456-152.828,133.896
									c-10.812,0.146-15.649-39.424-13.938-50.167c2.073-13.016,96.518-82.707,129.166-108.021
									c5.106-3.959,8.989-5.526,8.989-5.526L1431.527,1334.765z"></path>
                  <path fill="#6694e9" d="M1255.054,1423.04c1.169-7.342,25.283-25.905,64.376-58.192
									c-5.418,17.487,17.405,46.231,42.328,46.904c-42.113,40.624-74.696,66.278-91.364,66.504
									C1258.495,1478.418,1253.171,1434.865,1255.054,1423.04z"></path>
                </g>
                <g>
                  <path fill="#f0c7ad" d="M1422.539,1227.334c-6.014,2.428-12.55,16.225-15.313,23.725
									c-6.969,18.919-2.939,28.418,2.257,38.908c4.922,9.938-14.28,18.852-14.28,18.852l36.14,25.87
									c0,0,11.332-10.311,24.314-22.728c10.029-9.593,16.682-43.754,13.695-51.348
									C1463.841,1246.603,1428.231,1225.037,1422.539,1227.334z"></path>
                </g>
              </g>
              <path fill="#ffeede" d="M941.414,1535.439c33.119,30.2,72.28,43.96,122.363,50.896l-9.083,21.204
							c-48.197-7.353-84.482-16.679-120.311-45.334L941.414,1535.439z"></path>
              <path fill="#e6e6e6" d="M948.127,1673.697c-1.651,0-3.316-0.561-4.676-1.713c-3.064-2.585-3.448-7.162-0.861-10.224
							c5.903-6.985,9.131-22.737,12.253-37.97c5.325-25.969,10.831-52.819,32.444-53.746c3.925-0.137,7.387,2.932,7.559,6.937
							c0.168,4.005-2.936,7.387-6.941,7.559c-10.292,0.442-14.84,22.607-18.849,42.165c-3.647,17.796-7.091,34.608-15.383,44.421
							C952.238,1672.823,950.189,1673.697,948.127,1673.697z"></path>
              <path fill="#e6e6e6" d="M990.413,1710.698c-3.161,0-6.067-2.082-6.976-5.274c-0.314-1.115-29.42-112.766-2.358-130.977
							c3.316-2.232,7.828-1.36,10.067,1.967c2.239,3.325,1.356,7.833-1.969,10.069c-7.908,5.325-7.36,60.104,8.221,114.976
							c1.091,3.854-1.143,7.868-4.998,8.961C991.738,1710.607,991.071,1710.698,990.413,1710.698z"></path>
              <path fill="#ffeede" d="M986.89,1657.842c-15.688,0-23.64-10.621-23.64-31.57c0-21.666,16.668-50.377,17.379-51.589
							c1.302-2.223,3.687-3.588,6.261-3.588c2.574,0,4.959,1.365,6.261,3.588c0.711,1.212,17.379,29.923,17.379,51.589
							C1010.529,1647.221,1002.577,1657.842,986.89,1657.842z M986.89,1594.263c-4.261,9.241-9.131,21.993-9.131,32.009
							c0,17.061,5.276,17.061,9.131,17.061c3.855,0,9.131,0,9.131-17.061C996.021,1616.704,991.345,1604.001,986.89,1594.263z"></path>
              <path fill="#ffeede" d="M956.914,1617.106c-5.219,0-9.321-2.678-12.336-5.809c-5.877-6.102-9.873-16.264,4.433-30.044
							c11.016-10.61,32.577-16.041,35.001-16.626c2.486-0.603,5.139,0.166,6.923,2.02c1.788,1.857,2.459,4.519,1.762,6.998
							c-0.676,2.4-6.914,23.739-17.931,34.349l0,0C967.802,1614.699,961.855,1617.106,956.914,1617.106z M969.732,1602.769h0.044
							H969.732z M973.705,1583.244c-5.506,2.236-11.175,5.133-14.628,8.46c-6.862,6.607-5.431,8.093-4.049,9.528
							c1.382,1.433,2.817,2.914,9.67-3.689l0,0C968.155,1594.216,971.264,1588.66,973.705,1583.244z"></path>
            </g>
          </g>
        </g>
      </g>
    </g>
  </switch>
</svg>
